<?xml version="1.0" encoding="UTF-8"?>
<svg xmlns="http://www.w3.org/2000/svg" width="512" height="512" viewBox="0 0 512 512">
  <defs>
    <linearGradient id="g" x1="0" x2="1" y1="0" y2="1">
      <stop offset="0%" stop-color="#3a4a7c"/>
      <stop offset="100%" stop-color="#06b6d4"/>
    </linearGradient>
    <filter id="s" x="-20%" y="-20%" width="140%" height="140%">
      <feDropShadow dx="0" dy="6" stdDeviation="10" flood-color="#000" flood-opacity="0.18"/>
    </filter>
  </defs>
  <!-- Fondo con esquinas redondeadas -->
  <rect x="36" y="36" width="440" height="440" rx="56" fill="url(#g)" filter="url(#s)"/>
  <!-- Tarjeta de contacto -->
  <g transform="translate(96,120)">
    <rect x="0" y="0" width="320" height="272" rx="24" fill="#ffffff" opacity="0.96"/>
    <!-- Avatar -->
    <circle cx="88" cy="96" r="44" fill="#e6eef8"/>
    <circle cx="88" cy="86" r="20" fill="#3a4a7c" opacity="0.9"/>
    <rect x="56" y="132" width="64" height="12" rx="6" fill="#3a4a7c" opacity="0.18"/>
    <!-- Líneas de texto -->
    <rect x="168" y="68" width="120" height="14" rx="7" fill="#3a4a7c" opacity="0.6"/>
    <rect x="168" y="96" width="96" height="12" rx="6" fill="#3a4a7c" opacity="0.28"/>
    <rect x="168" y="132" width="140" height="12" rx="6" fill="#3a4a7c" opacity="0.45"/>
    <rect x="168" y="160" width="116" height="12" rx="6" fill="#3a4a7c" opacity="0.28"/>
    <!-- Botón nota -->
    <rect x="56" y="200" width="96" height="28" rx="14" fill="#3a4a7c"/>
    <rect x="168" y="200" width="96" height="28" rx="14" fill="#06b6d4"/>
  </g>
  <!-- Marca CD -->
  <g transform="translate(256,448)" opacity="0.9">
    <circle cx="0" cy="0" r="26" fill="#ffffff" opacity="0.18"/>
    <path d="M -12 -10 Q -28 -10 -28 0 Q -28 10 -12 10 L 4 10 L 4 4 L -12 4 Q -18 4 -18 0 Q -18 -4 -12 -4 L 4 -4 L 4 -10 Z" fill="#ffffff"/>
    <path d="M 10 -10 L 26 -10 L 26 10 L 10 10 Z M 14 -6 L 22 -6 L 22 6 L 14 6 Z" fill="#ffffff" opacity="0.9"/>
  </g>
</svg>
